<svg viewBox="0 0 920 224" fill="none" xmlns="http://www.w3.org/2000/svg" preserveAspectRatio="xMidYMid slice">
  <!-- Deep burgundy base -->
  <rect width="920" height="224" fill="#430607"/>
  <!-- Subtle gradient overlay to add depth -->
  <rect width="920" height="224" fill="url(#grad1)" opacity="0.60"/>
  <defs>
    <linearGradient id="grad1" x1="0" y1="0" x2="920" y2="224" gradientUnits="userSpaceOnUse">
      <stop offset="0%" stop-color="#6b0a0c"/>
      <stop offset="50%" stop-color="#430607"/>
      <stop offset="100%" stop-color="#5a0809"/>
    </linearGradient>
  </defs>
  <!-- Decorative floral corner pieces -->
  <!-- Top-left cluster -->
  <circle cx="40" cy="40" r="28" fill="#c8948a" opacity="0.22"/>
  <circle cx="40" cy="40" r="18" fill="#a86858" opacity="0.28"/>
  <circle cx="40" cy="40" r="10" fill="#d4a598" opacity="0.35"/>
  <circle cx="12" cy="20" r="12" fill="#e0c0b0" opacity="0.18"/>
  <circle cx="68" cy="15" r="10" fill="#c8948a" opacity="0.20"/>
  <circle cx="15" cy="65" r="10" fill="#d4a598" opacity="0.20"/>
  <path d="M5 80 C15 70 30 62 40 58 C28 68 15 78 5 80Z" fill="#e0c0b0" opacity="0.15"/>
  <path d="M80 5 C72 18 65 32 62 40 C68 28 76 14 80 5Z" fill="#e0c0b0" opacity="0.15"/>
  <!-- Top-right cluster (mirrored) -->
  <circle cx="880" cy="40" r="28" fill="#c8948a" opacity="0.22"/>
  <circle cx="880" cy="40" r="18" fill="#a86858" opacity="0.28"/>
  <circle cx="880" cy="40" r="10" fill="#d4a598" opacity="0.35"/>
  <circle cx="908" cy="20" r="12" fill="#e0c0b0" opacity="0.18"/>
  <circle cx="852" cy="15" r="10" fill="#c8948a" opacity="0.20"/>
  <circle cx="905" cy="65" r="10" fill="#d4a598" opacity="0.20"/>
  <path d="M915 80 C905 70 890 62 880 58 C892 68 905 78 915 80Z" fill="#e0c0b0" opacity="0.15"/>
  <path d="M840 5 C848 18 855 32 858 40 C852 28 844 14 840 5Z" fill="#e0c0b0" opacity="0.15"/>
  <!-- Bottom-left cluster -->
  <circle cx="40" cy="184" r="22" fill="#c8948a" opacity="0.20"/>
  <circle cx="40" cy="184" r="14" fill="#d4a598" opacity="0.25"/>
  <circle cx="12" cy="200" r="10" fill="#e0c0b0" opacity="0.18"/>
  <circle cx="65" cy="208" r="9" fill="#c8948a" opacity="0.18"/>
  <!-- Bottom-right cluster -->
  <circle cx="880" cy="184" r="22" fill="#c8948a" opacity="0.20"/>
  <circle cx="880" cy="184" r="14" fill="#d4a598" opacity="0.25"/>
  <circle cx="908" cy="200" r="10" fill="#e0c0b0" opacity="0.18"/>
  <circle cx="855" cy="208" r="9" fill="#c8948a" opacity="0.18"/>
  <!-- Subtle texture dots pattern -->
  <circle cx="200" cy="30" r="2" fill="#e0c0b0" opacity="0.12"/>
  <circle cx="320" cy="55" r="2" fill="#e0c0b0" opacity="0.10"/>
  <circle cx="460" cy="25" r="2" fill="#e0c0b0" opacity="0.12"/>
  <circle cx="600" cy="60" r="2" fill="#e0c0b0" opacity="0.10"/>
  <circle cx="730" cy="30" r="2" fill="#e0c0b0" opacity="0.12"/>
  <circle cx="200" cy="195" r="2" fill="#e0c0b0" opacity="0.12"/>
  <circle cx="320" cy="170" r="2" fill="#e0c0b0" opacity="0.10"/>
  <circle cx="460" cy="200" r="2" fill="#e0c0b0" opacity="0.12"/>
  <circle cx="600" cy="165" r="2" fill="#e0c0b0" opacity="0.10"/>
  <circle cx="730" cy="195" r="2" fill="#e0c0b0" opacity="0.12"/>
  <!-- Top and bottom thin decorative lines -->
  <line x1="100" y1="8" x2="820" y2="8" stroke="#e0c0b0" stroke-width="0.8" opacity="0.25"/>
  <line x1="100" y1="216" x2="820" y2="216" stroke="#e0c0b0" stroke-width="0.8" opacity="0.25"/>
</svg>
