<svg viewBox="0 0 480 72" fill="none" xmlns="http://www.w3.org/2000/svg" preserveAspectRatio="none">
  <!-- Warm beige/cream background -->
  <rect width="480" height="72" fill="#f5e6d8" opacity="0.70"/>
  <!-- Subtle grain/texture lines -->
  <path d="M0 15 Q120 10 240 15 Q360 20 480 15" stroke="#430607" stroke-width="0.5" fill="none" opacity="0.12"/>
  <path d="M0 35 Q120 30 240 35 Q360 40 480 35" stroke="#430607" stroke-width="0.5" fill="none" opacity="0.10"/>
  <path d="M0 55 Q120 50 240 55 Q360 60 480 55" stroke="#430607" stroke-width="0.5" fill="none" opacity="0.12"/>
  <!-- Left decorative floral element -->
  <circle cx="24" cy="36" r="14" fill="#d4a598" opacity="0.35"/>
  <circle cx="24" cy="36" r="9" fill="#430607" opacity="0.18"/>
  <circle cx="24" cy="36" r="5" fill="#430607" opacity="0.25"/>
  <circle cx="8" cy="24" r="7" fill="#e0c0b0" opacity="0.30"/>
  <circle cx="40" cy="20" r="6" fill="#c8948a" opacity="0.30"/>
  <circle cx="8" cy="50" r="7" fill="#e0c0b0" opacity="0.28"/>
  <circle cx="40" cy="52" r="6" fill="#c8948a" opacity="0.28"/>
  <!-- Right decorative floral element -->
  <circle cx="456" cy="36" r="14" fill="#d4a598" opacity="0.35"/>
  <circle cx="456" cy="36" r="9" fill="#430607" opacity="0.18"/>
  <circle cx="456" cy="36" r="5" fill="#430607" opacity="0.25"/>
  <circle cx="472" cy="24" r="7" fill="#e0c0b0" opacity="0.30"/>
  <circle cx="440" cy="20" r="6" fill="#c8948a" opacity="0.30"/>
  <circle cx="472" cy="50" r="7" fill="#e0c0b0" opacity="0.28"/>
  <circle cx="440" cy="52" r="6" fill="#c8948a" opacity="0.28"/>
  <!-- Border lines top & bottom -->
  <line x1="0" y1="2" x2="480" y2="2" stroke="#430607" stroke-width="1" opacity="0.20"/>
  <line x1="0" y1="70" x2="480" y2="70" stroke="#430607" stroke-width="1" opacity="0.20"/>
</svg>
