<svg viewBox="0 0 160 160" fill="none" xmlns="http://www.w3.org/2000/svg" overflow="visible">
  <!-- Large center heart -->
  <path d="M80 120 C80 120 25 82 25 52 C25 36 38 25 52 25 C63 25 74 32 80 40 C86 32 97 25 108 25 C122 25 135 36 135 52 C135 82 80 120 80 120Z" fill="#430607" opacity="0.28"/>
  <path d="M80 112 C80 112 32 78 32 52 C32 38 42 32 52 32 C63 32 73 39 80 48 C87 39 97 32 108 32 C118 32 128 38 128 52 C128 78 80 112 80 112Z" stroke="#430607" stroke-width="1.5" fill="none" opacity="0.50"/>
  <!-- Small left heart -->
  <path d="M35 140 C35 140 15 126 15 114 C15 108 20 104 26 104 C30 104 33 107 35 110 C37 107 40 104 44 104 C50 104 55 108 55 114 C55 126 35 140 35 140Z" fill="#430607" opacity="0.20"/>
  <!-- Small right heart -->
  <path d="M125 140 C125 140 105 126 105 114 C105 108 110 104 116 104 C120 104 123 107 125 110 C127 107 130 104 134 104 C140 104 145 108 145 114 C145 126 125 140 125 140Z" fill="#430607" opacity="0.20"/>
  <!-- Tiny scattered hearts -->
  <path d="M55 30 C55 30 46 24 46 20 C46 18 48 16 50 16 C52 16 54 17 55 19 C56 17 58 16 60 16 C62 16 64 18 64 20 C64 24 55 30 55 30Z" fill="#430607" opacity="0.35"/>
  <path d="M105 30 C105 30 96 24 96 20 C96 18 98 16 100 16 C102 16 104 17 105 19 C106 17 108 16 110 16 C112 16 114 18 114 20 C114 24 105 30 105 30Z" fill="#430607" opacity="0.35"/>
</svg>
