<svg viewBox="0 0 120 100" fill="none" xmlns="http://www.w3.org/2000/svg" overflow="visible">
  <!-- Left flourish -->
  <path d="M5 50 C15 45 25 35 30 25 C32 32 28 42 22 48 C28 44 35 40 40 32" stroke="#430607" stroke-width="1.5" fill="none" opacity="0.55" stroke-linecap="round"/>
  <path d="M5 50 C15 55 25 65 30 75 C32 68 28 58 22 52 C28 56 35 60 40 68" stroke="#430607" stroke-width="1.5" fill="none" opacity="0.55" stroke-linecap="round"/>
  <!-- Small flower left -->
  <circle cx="40" cy="50" r="12" fill="#d4a598" opacity="0.40"/>
  <circle cx="40" cy="50" r="7" fill="#430607" opacity="0.30"/>
  <circle cx="40" cy="50" r="4" fill="#430607" opacity="0.50"/>
  <!-- Right flourish (mirrored) -->
  <path d="M115 50 C105 45 95 35 90 25 C88 32 92 42 98 48 C92 44 85 40 80 32" stroke="#430607" stroke-width="1.5" fill="none" opacity="0.55" stroke-linecap="round"/>
  <path d="M115 50 C105 55 95 65 90 75 C88 68 92 58 98 52 C92 56 85 60 80 68" stroke="#430607" stroke-width="1.5" fill="none" opacity="0.55" stroke-linecap="round"/>
  <!-- Small flower right -->
  <circle cx="80" cy="50" r="12" fill="#d4a598" opacity="0.40"/>
  <circle cx="80" cy="50" r="7" fill="#430607" opacity="0.30"/>
  <circle cx="80" cy="50" r="4" fill="#430607" opacity="0.50"/>
  <!-- Center decorative line -->
  <line x1="54" y1="50" x2="66" y2="50" stroke="#430607" stroke-width="1" opacity="0.40"/>
  <circle cx="60" cy="50" r="2" fill="#430607" opacity="0.50"/>
</svg>
