<svg viewBox="0 0 140 100" fill="none" xmlns="http://www.w3.org/2000/svg" overflow="visible">
  <!-- Big center heart -->
  <path d="M70 88 C70 88 20 58 20 35 C20 23 29 15 40 15 C49 15 57 20 70 32 C83 20 91 15 100 15 C111 15 120 23 120 35 C120 58 70 88 70 88Z" fill="#430607" opacity="0.22"/>
  <path d="M70 83 C70 83 25 55 25 35 C25 25 33 18 43 18 C52 18 59 23 70 35 C81 23 88 18 97 18 C107 18 115 25 115 35 C115 55 70 83 70 83Z" stroke="#430607" stroke-width="1.5" fill="none" opacity="0.55"/>
  <!-- Tiny hearts scattered -->
  <path d="M25 14 C25 14 18 9 18 6 C18 4.5 19.3 3 21 3 C22.3 3 23.5 4 25 5.5 C26.5 4 27.7 3 29 3 C30.7 3 32 4.5 32 6 C32 9 25 14 25 14Z" fill="#430607" opacity="0.40"/>
  <path d="M115 14 C115 14 108 9 108 6 C108 4.5 109.3 3 111 3 C112.3 3 113.5 4 115 5.5 C116.5 4 117.7 3 119 3 C120.7 3 122 4.5 122 6 C122 9 115 14 115 14Z" fill="#430607" opacity="0.40"/>
  <path d="M70 10 C70 10 64 6 64 3 C64 1.5 65.3 0 67 0 C68.3 0 69.5 1 70 2 C70.5 1 71.7 0 73 0 C74.7 0 76 1.5 76 3 C76 6 70 10 70 10Z" fill="#430607" opacity="0.50"/>
  <!-- Side dots -->
  <circle cx="8" cy="40" r="3" fill="#430607" opacity="0.22"/>
  <circle cx="132" cy="40" r="3" fill="#430607" opacity="0.22"/>
  <circle cx="4" cy="55" r="2" fill="#430607" opacity="0.18"/>
  <circle cx="136" cy="55" r="2" fill="#430607" opacity="0.18"/>
</svg>
