<svg preserveAspectRatio="none" width="100%" height="100%" overflow="visible" style="display: block;" viewBox="0 0 30.2899 14.7279" fill="none" xmlns="http://www.w3.org/2000/svg">
<path id="Line 14" d="M1 6.36396C0.447715 6.36396 0 6.81168 0 7.36396C0 7.91625 0.447715 8.36396 1 8.36396V7.36396V6.36396ZM29.997 8.07107C30.3875 7.68054 30.3875 7.04738 29.997 6.65685L23.633 0.292893C23.2425 -0.097631 22.6094 -0.097631 22.2188 0.292893C21.8283 0.683418 21.8283 1.31658 22.2188 1.70711L27.8757 7.36396L22.2188 13.0208C21.8283 13.4113 21.8283 14.0445 22.2188 14.435C22.6094 14.8256 23.2425 14.8256 23.633 14.435L29.997 8.07107ZM1 7.36396V8.36396H29.2899V7.36396V6.36396H1V7.36396Z" fill="var(--stroke-0, #570000)"/>
</svg>
