<svg viewBox="0 0 200 130" fill="none" xmlns="http://www.w3.org/2000/svg" overflow="visible">
  <!-- Three hearts in a row -->
  <!-- Left heart -->
  <path d="M38 108 C38 108 8 90 8 72 C8 63 14 57 22 57 C28 57 34 61 38 68 C42 61 48 57 54 57 C62 57 68 63 68 72 C68 90 38 108 38 108Z" fill="#430607" opacity="0.20"/>
  <path d="M38 103 C38 103 13 87 13 72 C13 65 18 60 25 60 C31 60 36 64 38 70 C40 64 45 60 51 60 C58 60 63 65 63 72 C63 87 38 103 38 103Z" stroke="#430607" stroke-width="1.2" fill="none" opacity="0.45"/>
  <!-- Center heart (bigger) -->
  <path d="M100 112 C100 112 62 90 62 68 C62 57 70 50 80 50 C88 50 95 55 100 64 C105 55 112 50 120 50 C130 50 138 57 138 68 C138 90 100 112 100 112Z" fill="#430607" opacity="0.25"/>
  <path d="M100 107 C100 107 67 87 67 68 C67 59 74 53 83 53 C90 53 96 57 100 65 C104 57 110 53 117 53 C126 53 133 59 133 68 C133 87 100 107 100 107Z" stroke="#430607" stroke-width="1.5" fill="none" opacity="0.55"/>
  <!-- Right heart -->
  <path d="M162 108 C162 108 132 90 132 72 C132 63 138 57 146 57 C152 57 158 61 162 68 C166 61 172 57 178 57 C186 57 192 63 192 72 C192 90 162 108 162 108Z" fill="#430607" opacity="0.20"/>
  <path d="M162 103 C162 103 137 87 137 72 C137 65 142 60 149 60 C155 60 160 64 162 70 C164 64 169 60 175 60 C182 60 187 65 187 72 C187 87 162 103 162 103Z" stroke="#430607" stroke-width="1.2" fill="none" opacity="0.45"/>
  <!-- Small decorative hearts above -->
  <path d="M62 38 C62 38 55 33 55 29 C55 27 56.8 26 59 26 C60.5 26 62 27 62 28.5 C62 27 63.5 26 65 26 C67.2 26 69 27 69 29 C69 33 62 38 62 38Z" fill="#430607" opacity="0.35"/>
  <path d="M138 38 C138 38 131 33 131 29 C131 27 132.8 26 135 26 C136.5 26 138 27 138 28.5 C138 27 139.5 26 141 26 C143.2 26 145 27 145 29 C145 33 138 38 138 38Z" fill="#430607" opacity="0.35"/>
  <path d="M100 28 C100 28 93 23 93 19 C93 17 94.8 16 97 16 C98.5 16 99.8 17 100 18.5 C100.2 17 101.5 16 103 16 C105.2 16 107 17 107 19 C107 23 100 28 100 28Z" fill="#430607" opacity="0.40"/>
</svg>
