<svg viewBox="0 0 130 140" fill="none" xmlns="http://www.w3.org/2000/svg" overflow="visible">
  <!-- Large ornate heart -->
  <path d="M65 120 C65 120 10 82 10 50 C10 33 22 22 38 22 C49 22 59 28 65 40 C71 28 81 22 92 22 C108 22 120 33 120 50 C120 82 65 120 65 120Z" fill="#430607" opacity="0.18"/>
  <path d="M65 113 C65 113 17 77 17 50 C17 36 27 26 41 26 C51 26 60 32 65 43 C70 32 79 26 89 26 C103 26 113 36 113 50 C113 77 65 113 65 113Z" stroke="#430607" stroke-width="1.8" fill="none" opacity="0.50"/>
  <!-- Inner small heart -->
  <path d="M65 78 C65 78 44 65 44 54 C44 48 49 44 55 44 C59 44 63 46 65 50 C67 46 71 44 75 44 C81 44 86 48 86 54 C86 65 65 78 65 78Z" fill="#430607" opacity="0.25"/>
  <!-- Decorative top ornament -->
  <path d="M65 22 C65 22 55 13 55 8 C55 5 57.5 3 60 3 C62 3 64 4.5 65 6.5 C66 4.5 68 3 70 3 C72.5 3 75 5 75 8 C75 13 65 22 65 22Z" fill="#430607" opacity="0.45"/>
  <!-- Small side hearts -->
  <path d="M15 62 C15 62 6 56 6 51 C6 48.5 7.8 47 10 47 C11.8 47 13.5 48 15 50 C16.5 48 18.2 47 20 47 C22.2 47 24 48.5 24 51 C24 56 15 62 15 62Z" fill="#430607" opacity="0.30"/>
  <path d="M115 62 C115 62 124 56 124 51 C124 48.5 122.2 47 120 47 C118.2 47 116.5 48 115 50 C113.5 48 111.8 47 110 47 C107.8 47 106 48.5 106 51 C106 56 115 62 115 62Z" fill="#430607" opacity="0.30"/>
</svg>
