<svg viewBox="0 0 130 80" fill="none" xmlns="http://www.w3.org/2000/svg" overflow="visible">
  <!-- Left heart -->
  <path d="M35 65 C35 65 5 47 5 32 C5 24 11 18 19 18 C25 18 31 22 35 28 C39 22 45 18 51 18 C59 18 65 24 65 32 C65 47 35 65 35 65Z" fill="#430607" opacity="0.18"/>
  <path d="M35 61 C35 61 9 45 9 32 C9 25 14 20 21 20 C27 20 32 24 35 30 C38 24 43 20 49 20 C56 20 61 25 61 32 C61 45 35 61 35 61Z" stroke="#430607" stroke-width="1.2" fill="none" opacity="0.45"/>
  <!-- Right heart (slightly larger) -->
  <path d="M95 68 C95 68 65 50 65 35 C65 27 71 21 79 21 C85 21 91 25 95 31 C99 25 105 21 111 21 C119 21 125 27 125 35 C125 50 95 68 95 68Z" fill="#430607" opacity="0.22"/>
  <path d="M95 63 C95 63 69 47 69 35 C69 28 74 23 81 23 C87 23 92 27 95 33 C98 27 103 23 109 23 C116 23 121 28 121 35 C121 47 95 63 95 63Z" stroke="#430607" stroke-width="1.3" fill="none" opacity="0.50"/>
  <!-- Small connecting heart -->
  <path d="M65 28 C65 28 55 22 55 17 C55 14 57.5 12 60 12 C62 12 64 13.5 65 15 C66 13.5 68 12 70 12 C72.5 12 75 14 75 17 C75 22 65 28 65 28Z" fill="#430607" opacity="0.35"/>
</svg>
