<svg viewBox="0 0 120 120" fill="none" xmlns="http://www.w3.org/2000/svg" overflow="visible">
  <!-- Mirror of flower_1 - main heart -->
  <path d="M60 95 C60 95 15 65 15 40 C15 27 25 18 37 18 C45 18 53 23 60 32 C67 23 75 18 83 18 C95 18 105 27 105 40 C105 65 60 95 60 95Z" fill="#430607" opacity="0.22"/>
  <path d="M60 90 C60 90 22 63 22 40 C22 30 30 22 40 22 C48 22 55 27 60 35 C65 27 72 22 80 22 C90 22 98 30 98 40 C98 63 60 90 60 90Z" stroke="#430607" stroke-width="1.5" fill="none" opacity="0.55"/>
  <!-- Satellite hearts -->
  <path d="M98 18 C98 18 108 11 108 7 C108 5 106 3 104 3 C102 3 100 5 98 7 C96 5 94 3 92 3 C90 3 88 5 88 7 C88 11 98 18 98 18Z" fill="#430607" opacity="0.40"/>
  <path d="M24 22 C24 22 32 16 32 12 C32 10 30.5 9 29 9 C27.5 9 26 10.5 24 12 C22 10.5 20.5 9 19 9 C17.5 9 16 10 16 12 C16 16 24 22 24 22Z" fill="#430607" opacity="0.35"/>
  <!-- Decorative dots -->
  <circle cx="82" cy="12" r="3" fill="#430607" opacity="0.25"/>
  <circle cx="38" cy="12" r="3" fill="#430607" opacity="0.25"/>
  <circle cx="108" cy="48" r="2.5" fill="#430607" opacity="0.20"/>
  <circle cx="12" cy="48" r="2.5" fill="#430607" opacity="0.20"/>
</svg>
