<svg viewBox="0 0 220 200" fill="none" xmlns="http://www.w3.org/2000/svg" overflow="visible">
  <!-- Left stem -->
  <path d="M110 190 C105 170 98 155 88 140 C78 125 70 108 75 90" stroke="#430607" stroke-width="1.8" stroke-linecap="round" opacity="0.60"/>
  <!-- Right stem -->
  <path d="M110 190 C115 170 122 155 132 140 C142 125 150 108 145 90" stroke="#430607" stroke-width="1.8" stroke-linecap="round" opacity="0.60"/>
  <!-- Left leaves -->
  <path d="M86 135 C72 128 58 130 55 142 C68 130 84 132 86 135Z" fill="#430607" opacity="0.12"/>
  <path d="M80 108 C70 100 60 98 58 108 C68 100 78 104 80 108Z" fill="#430607" opacity="0.10"/>
  <!-- Right leaves -->
  <path d="M134 135 C148 128 162 130 165 142 C152 130 136 132 134 135Z" fill="#430607" opacity="0.12"/>
  <path d="M140 108 C150 100 160 98 162 108 C152 100 142 104 140 108Z" fill="#430607" opacity="0.10"/>
  <!-- Center flower -->
  <ellipse cx="110" cy="45" rx="24" ry="34" fill="#d4a598" opacity="0.45" transform="rotate(0 110 65)"/>
  <ellipse cx="130" cy="52" rx="22" ry="30" fill="#c8948a" opacity="0.45" transform="rotate(36 110 65)"/>
  <ellipse cx="130" cy="72" rx="20" ry="28" fill="#d4a598" opacity="0.42" transform="rotate(72 110 65)"/>
  <ellipse cx="112" cy="86" rx="20" ry="26" fill="#c8948a" opacity="0.40" transform="rotate(108 110 65)"/>
  <ellipse cx="90" cy="75" rx="20" ry="26" fill="#d4a598" opacity="0.40" transform="rotate(-72 110 65)"/>
  <ellipse cx="90" cy="52" rx="22" ry="30" fill="#c8948a" opacity="0.42" transform="rotate(-36 110 65)"/>
  <ellipse cx="112" cy="52" rx="15" ry="22" fill="#b87060" opacity="0.50" transform="rotate(0 110 65)"/>
  <ellipse cx="122" cy="62" rx="13" ry="19" fill="#a86050" opacity="0.50" transform="rotate(40 110 65)"/>
  <ellipse cx="116" cy="76" rx="13" ry="18" fill="#b87060" opacity="0.48" transform="rotate(80 110 65)"/>
  <ellipse cx="100" cy="76" rx="13" ry="18" fill="#a86050" opacity="0.45" transform="rotate(-80 110 65)"/>
  <ellipse cx="98" cy="62" rx="13" ry="19" fill="#b87060" opacity="0.48" transform="rotate(-40 110 65)"/>
  <ellipse cx="113" cy="58" rx="9" ry="14" fill="#430607" opacity="0.32"/>
  <ellipse cx="118" cy="68" rx="8" ry="12" fill="#430607" opacity="0.30" transform="rotate(40 110 65)"/>
  <ellipse cx="110" cy="77" rx="8" ry="12" fill="#430607" opacity="0.28" transform="rotate(80 110 65)"/>
  <circle cx="112" cy="65" r="10" fill="#430607" opacity="0.38"/>
  <circle cx="112" cy="64" r="5" fill="#430607" opacity="0.58"/>
  <!-- Left small flower -->
  <ellipse cx="72" cy="88" rx="14" ry="20" fill="#e0b8a8" opacity="0.48" transform="rotate(-10 72 95)"/>
  <ellipse cx="82" cy="90" rx="12" ry="18" fill="#d0a898" opacity="0.48" transform="rotate(30 72 95)"/>
  <ellipse cx="80" cy="100" rx="12" ry="16" fill="#e0b8a8" opacity="0.45" transform="rotate(70 72 95)"/>
  <ellipse cx="64" cy="100" rx="12" ry="16" fill="#d0a898" opacity="0.45" transform="rotate(-60 72 95)"/>
  <circle cx="72" cy="95" r="7" fill="#430607" opacity="0.35"/>
  <!-- Right small flower -->
  <ellipse cx="148" cy="88" rx="14" ry="20" fill="#e0b8a8" opacity="0.48" transform="rotate(10 148 95)"/>
  <ellipse cx="138" cy="90" rx="12" ry="18" fill="#d0a898" opacity="0.48" transform="rotate(-30 148 95)"/>
  <ellipse cx="140" cy="100" rx="12" ry="16" fill="#e0b8a8" opacity="0.45" transform="rotate(-70 148 95)"/>
  <ellipse cx="156" cy="100" rx="12" ry="16" fill="#d0a898" opacity="0.45" transform="rotate(60 148 95)"/>
  <circle cx="148" cy="95" r="7" fill="#430607" opacity="0.35"/>
</svg>
