<svg viewBox="0 0 120 120" fill="none" xmlns="http://www.w3.org/2000/svg" overflow="visible">
  <!-- Main decorative heart with dots around -->
  <path d="M60 95 C60 95 15 65 15 40 C15 27 25 18 37 18 C45 18 53 23 60 32 C67 23 75 18 83 18 C95 18 105 27 105 40 C105 65 60 95 60 95Z" fill="#430607" opacity="0.22"/>
  <path d="M60 90 C60 90 22 63 22 40 C22 30 30 22 40 22 C48 22 55 27 60 35 C65 27 72 22 80 22 C90 22 98 30 98 40 C98 63 60 90 60 90Z" stroke="#430607" stroke-width="1.5" fill="none" opacity="0.55"/>
  <!-- Tiny hearts satellite -->
  <path d="M22 18 C22 18 12 11 12 7 C12 5 14 3 16 3 C18 3 20 5 22 7 C24 5 26 3 28 3 C30 3 32 5 32 7 C32 11 22 18 22 18Z" fill="#430607" opacity="0.40"/>
  <path d="M96 22 C96 22 88 16 88 12 C88 10 89.5 9 91 9 C92.5 9 94 10.5 96 12 C98 10.5 99.5 9 101 9 C102.5 9 104 10 104 12 C104 16 96 22 96 22Z" fill="#430607" opacity="0.35"/>
  <!-- Decorative dots -->
  <circle cx="38" cy="12" r="3" fill="#430607" opacity="0.25"/>
  <circle cx="82" cy="12" r="3" fill="#430607" opacity="0.25"/>
  <circle cx="12" cy="48" r="2.5" fill="#430607" opacity="0.20"/>
  <circle cx="108" cy="48" r="2.5" fill="#430607" opacity="0.20"/>
</svg>
