<svg viewBox="0 0 160 180" fill="none" xmlns="http://www.w3.org/2000/svg" overflow="visible">
  <path d="M70 170 C75 155 82 140 90 128 C98 116 102 102 95 88" stroke="#430607" stroke-width="1.6" stroke-linecap="round" opacity="0.60"/>
  <path d="M88 125 C100 118 112 120 116 130" stroke="#430607" stroke-width="1.2" stroke-linecap="round" opacity="0.50"/>
  <path d="M88 125 C104 115 116 118 116 130 C104 120 90 120 88 125Z" fill="#430607" opacity="0.11"/>
  <path d="M92 103 C85 95 80 85 84 78" stroke="#430607" stroke-width="1.2" stroke-linecap="round" opacity="0.45"/>
  <path d="M92 103 C84 94 78 88 82 80 C86 90 92 103 92 103Z" fill="#430607" opacity="0.09"/>
  <ellipse cx="80" cy="55" rx="18" ry="26" fill="#e8c0b0" opacity="0.50" transform="rotate(15 80 72)"/>
  <ellipse cx="62" cy="60" rx="16" ry="24" fill="#d8a898" opacity="0.50" transform="rotate(-28 80 72)"/>
  <ellipse cx="58" cy="75" rx="15" ry="22" fill="#e8c0b0" opacity="0.45" transform="rotate(-58 80 72)"/>
  <ellipse cx="70" cy="89" rx="15" ry="20" fill="#d8a898" opacity="0.42" transform="rotate(-82 80 72)"/>
  <ellipse cx="95" cy="83" rx="15" ry="20" fill="#e8c0b0" opacity="0.42" transform="rotate(48 80 72)"/>
  <ellipse cx="76" cy="62" rx="11" ry="17" fill="#b87868" opacity="0.52" transform="rotate(12 80 72)"/>
  <ellipse cx="65" cy="70" rx="10" ry="16" fill="#a86858" opacity="0.52" transform="rotate(-28 80 72)"/>
  <ellipse cx="70" cy="83" rx="10" ry="14" fill="#b87868" opacity="0.48" transform="rotate(-62 80 72)"/>
  <ellipse cx="88" cy="78" rx="10" ry="14" fill="#a86858" opacity="0.48" transform="rotate(42 80 72)"/>
  <ellipse cx="78" cy="68" rx="7" ry="11" fill="#430607" opacity="0.32" transform="rotate(8 80 72)"/>
  <ellipse cx="70" cy="74" rx="6" ry="10" fill="#430607" opacity="0.28" transform="rotate(-28 80 72)"/>
  <circle cx="78" cy="72" r="7" fill="#430607" opacity="0.38"/>
  <circle cx="78" cy="71" r="3.5" fill="#430607" opacity="0.55"/>
  <ellipse cx="110" cy="122" rx="6" ry="9" fill="#d8a898" opacity="0.55" transform="rotate(25 110 122)"/>
  <ellipse cx="110" cy="122" rx="3.5" ry="6" fill="#430607" opacity="0.28" transform="rotate(25 110 122)"/>
</svg>
