<svg width="320" height="421" viewBox="0 0 320 421" fill="none" xmlns="http://www.w3.org/2000/svg">
<defs>
<mask id="path-2-outside-1_57_803" maskUnits="userSpaceOnUse" x="7" y="5.5" width="271" height="415" fill="black">
<rect fill="white" x="7" y="5.5" width="271" height="415"/>
<path d="M37.5 353V412L241.5 415L239.5 385L240.5 354.5V351L241.5 349.5L242.5 348.5L244.5 346.5L246.5 345.5C247.281 345.109 248.5 342.5 248.5 342.5L249.5 338.5L250 336H253.5L256.5 335L260 309V307C260 306.5 260.5 307 261 303.5C261.5 300 262 294 262 294L264.5 284.5L269.5 258.5L271 249.5L271.5 236V232L272 227.5L272.5 217.5V213L272 205.5V200V196.5L272.5 194L271.5 190L270 182L269.5 177.5L269 173.5V170.5L268.5 166.5L267.5 162L267 159L264 144.5L262 137.5L261.5 135.5L262 132.5L261 129.5V126.5L259.5 123.5L258 121.5L256 120L249 116L244.5 113L239.5 110L234.5 108.5L230.5 106.5L224.5 105L219.5 103.5L215 100L211 96.5C211 96.5 209.167 93.7967 207.5 92.5C206.466 91.6958 205 90.5 205 90.5L202 87L200 84.5L198.5 80.5L198 76.5L198.5 72L200 69L203.5 66.5L206 62L207 59L206.5 55.5V52.5L206 50.5V49.5L205.5 48L204.5 46L205.5 44.5V42V38.5V37V36V35V33L205 30.5L204.5 29V26.5L203 24L202 22.5L200.5 20.5L198.5 18.5L196.5 17L195 16L193 15L192 14.5L190.5 13L188.5 12.5L186 11.5L184 11H182.5L181 10.5H178L175 11L171.5 12L167 13.5L160.5 17L157.5 19L154 22.5L152 29.5L150 35L148.5 42L147.5 47.5V55.5L146.5 61V66.5L148.5 74L150 79L154 85L157.5 89L159 91.5L161 93.5L162 97L159 101L155.5 103L145 105L130 110.5L122 113.5L119.5 114.5L118.5 111.5L115.5 105L113 99L111 94.5L107 90.5L102 88L98.5 87H92.5L89.5 86L85 85H81.5L79.5 86H77.5H76L72.5 88L67.5 90.5L64 93.5L60.5 97L56 103L54 106L52 109.5L51 113.5V117.5L52 122.5V127.5L51 130.5C51 130.5 49.5232 133.27 48.5 135L48.392 135.183C47.5208 136.656 46.9992 137.539 46 139C44.8978 140.612 44.0485 141.626 43.5 143.5C43.0612 144.999 43 145.438 43 147C43 149.148 42.5895 150.392 43 152.5C43.4019 154.564 44.2803 155.524 45 157.5C45.6339 159.241 46.3514 160.154 46.5 162C46.6263 163.569 46.0749 164.428 46 166C45.9536 166.975 46.2755 167.563 46 168.5C45.5325 170.09 43 171.5 43 171.5L37.5 174L33 179L29 186.5L25 193L23 202L22.5 208L19.5 221L19 230.5L18.5 237L20 240L21 247L20 251L17.5 255.5L15 257.5L13 262C13.1667 263.167 13.8 265.9 15 267.5C16.2 269.1 20.8333 274.167 23 276.5L29.5 280.5L31.5 282L37.5 291V299L42.5 310C42.5 310 36 334 31.5 345.5C27 357 37.5 353 37.5 353Z"/>
</mask>
</defs>
<path d="M37.5 353V412L241.5 415L239.5 385L240.5 354.5V351L241.5 349.5L242.5 348.5L244.5 346.5L246.5 345.5C247.281 345.109 248.5 342.5 248.5 342.5L249.5 338.5L250 336H253.5L256.5 335L260 309V307C260 306.5 260.5 307 261 303.5C261.5 300 262 294 262 294L264.5 284.5L269.5 258.5L271 249.5L271.5 236V232L272 227.5L272.5 217.5V213L272 205.5V200V196.5L272.5 194L271.5 190L270 182L269.5 177.5L269 173.5V170.5L268.5 166.5L267.5 162L267 159L264 144.5L262 137.5L261.5 135.5L262 132.5L261 129.5V126.5L259.5 123.5L258 121.5L256 120L249 116L244.5 113L239.5 110L234.5 108.5L230.5 106.5L224.5 105L219.5 103.5L215 100L211 96.5C211 96.5 209.167 93.7967 207.5 92.5C206.466 91.6958 205 90.5 205 90.5L202 87L200 84.5L198.5 80.5L198 76.5L198.5 72L200 69L203.5 66.5L206 62L207 59L206.5 55.5V52.5L206 50.5V49.5L205.5 48L204.5 46L205.5 44.5V42V38.5V37V36V35V33L205 30.5L204.5 29V26.5L203 24L202 22.5L200.5 20.5L198.5 18.5L196.5 17L195 16L193 15L192 14.5L190.5 13L188.5 12.5L186 11.5L184 11H182.5L181 10.5H178L175 11L171.5 12L167 13.5L160.5 17L157.5 19L154 22.5L152 29.5L150 35L148.5 42L147.5 47.5V55.5L146.5 61V66.5L148.5 74L150 79L154 85L157.5 89L159 91.5L161 93.5L162 97L159 101L155.5 103L145 105L130 110.5L122 113.5L119.5 114.5L118.5 111.5L115.5 105L113 99L111 94.5L107 90.5L102 88L98.5 87H92.5L89.5 86L85 85H81.5L79.5 86H77.5H76L72.5 88L67.5 90.5L64 93.5L60.5 97L56 103L54 106L52 109.5L51 113.5V117.5L52 122.5V127.5L51 130.5C51 130.5 49.5232 133.27 48.5 135L48.392 135.183C47.5208 136.656 46.9992 137.539 46 139C44.8978 140.612 44.0485 141.626 43.5 143.5C43.0612 144.999 43 145.438 43 147C43 149.148 42.5895 150.392 43 152.5C43.4019 154.564 44.2803 155.524 45 157.5C45.6339 159.241 46.3514 160.154 46.5 162C46.6263 163.569 46.0749 164.428 46 166C45.9536 166.975 46.2755 167.563 46 168.5C45.5325 170.09 43 171.5 43 171.5L37.5 174L33 179L29 186.5L25 193L23 202L22.5 208L19.5 221L19 230.5L18.5 237L20 240L21 247L20 251L17.5 255.5L15 257.5L13 262C13.1667 263.167 13.8 265.9 15 267.5C16.2 269.1 20.8333 274.167 23 276.5L29.5 280.5L31.5 282L37.5 291V299L42.5 310C42.5 310 36 334 31.5 345.5C27 357 37.5 353 37.5 353Z" stroke="#7F1214" stroke-width="10" mask="url(#path-2-outside-1_57_803)"/>
</svg>