<svg viewBox="0 0 140 160" fill="none" xmlns="http://www.w3.org/2000/svg" overflow="visible">
  <!-- Candles -->
  <rect x="52" y="20" width="6" height="22" rx="3" fill="#f5e6d8" stroke="#430607" stroke-width="1" opacity="0.80"/>
  <rect x="82" y="15" width="6" height="25" rx="3" fill="#f5e6d8" stroke="#430607" stroke-width="1" opacity="0.80"/>
  <!-- Flames -->
  <ellipse cx="55" cy="17" rx="4" ry="6" fill="#c8948a" opacity="0.80"/>
  <ellipse cx="55" cy="16" rx="2.5" ry="4" fill="#430607" opacity="0.60"/>
  <ellipse cx="85" cy="12" rx="4" ry="6" fill="#c8948a" opacity="0.80"/>
  <ellipse cx="85" cy="11" rx="2.5" ry="4" fill="#430607" opacity="0.60"/>
  <!-- Top tier -->
  <ellipse cx="70" cy="46" rx="28" ry="8" fill="#f5e6d8" stroke="#430607" stroke-width="1.2" opacity="0.90"/>
  <rect x="42" y="46" width="56" height="28" fill="#f9f4f0" stroke="#430607" stroke-width="1.2" opacity="0.90"/>
  <ellipse cx="70" cy="74" rx="28" ry="8" fill="#f0ddd0" stroke="#430607" stroke-width="1.2" opacity="0.90"/>
  <!-- Top tier decoration -->
  <path d="M48 58 C52 54 56 58 60 54 C64 58 68 54 72 58 C76 54 80 58 84 54 C88 58 92 54 96 58" stroke="#c8948a" stroke-width="1.5" fill="none" opacity="0.70"/>
  <!-- Middle tier -->
  <ellipse cx="70" cy="74" rx="38" ry="10" fill="#f5e6d8" stroke="#430607" stroke-width="1.2" opacity="0.90"/>
  <rect x="32" y="74" width="76" height="34" fill="#f9f4f0" stroke="#430607" stroke-width="1.2" opacity="0.90"/>
  <ellipse cx="70" cy="108" rx="38" ry="10" fill="#f0ddd0" stroke="#430607" stroke-width="1.2" opacity="0.90"/>
  <!-- Middle tier rose decoration -->
  <circle cx="70" cy="90" r="10" fill="#d4a598" opacity="0.45"/>
  <circle cx="70" cy="90" r="6" fill="#b87060" opacity="0.45"/>
  <circle cx="70" cy="90" r="3" fill="#430607" opacity="0.40"/>
  <circle cx="50" cy="90" r="6" fill="#d4a598" opacity="0.40"/>
  <circle cx="90" cy="90" r="6" fill="#d4a598" opacity="0.40"/>
  <!-- Bottom tier -->
  <ellipse cx="70" cy="108" rx="50" ry="12" fill="#f5e6d8" stroke="#430607" stroke-width="1.2" opacity="0.90"/>
  <rect x="20" y="108" width="100" height="32" fill="#f9f4f0" stroke="#430607" stroke-width="1.2" opacity="0.90"/>
  <ellipse cx="70" cy="140" rx="50" ry="12" fill="#f0ddd0" stroke="#430607" stroke-width="1.5" opacity="0.90"/>
  <!-- Bottom tier decoration -->
  <path d="M26 122 C32 118 38 122 44 118 C50 122 56 118 62 122 C68 118 74 122 80 118 C86 122 92 118 98 122 C104 118 110 122 114 118" stroke="#c8948a" stroke-width="1.5" fill="none" opacity="0.65"/>
  <!-- Bottom roses row -->
  <circle cx="38" cy="128" r="7" fill="#d4a598" opacity="0.45"/>
  <circle cx="38" cy="128" r="4" fill="#430607" opacity="0.35"/>
  <circle cx="58" cy="128" r="7" fill="#e0b8a8" opacity="0.45"/>
  <circle cx="58" cy="128" r="4" fill="#430607" opacity="0.35"/>
  <circle cx="78" cy="128" r="7" fill="#d4a598" opacity="0.45"/>
  <circle cx="78" cy="128" r="4" fill="#430607" opacity="0.35"/>
  <circle cx="98" cy="128" r="7" fill="#e0b8a8" opacity="0.45"/>
  <circle cx="98" cy="128" r="4" fill="#430607" opacity="0.35"/>
  <!-- Plate base shadow -->
  <ellipse cx="70" cy="150" rx="55" ry="8" fill="#430607" opacity="0.06"/>
</svg>
